<?xml version="1.0" encoding="UTF-8" standalone="no"?><svg xmlns="http://www.w3.org/2000/svg" xmlns:xlink="http://www.w3.org/1999/xlink" contentScriptType="application/ecmascript" contentStyleType="text/css" height="277px" preserveAspectRatio="none" style="width:354px;height:277px;background:#FFFFFF;" version="1.1" viewBox="0 0 354 277" width="354px" zoomAndPan="magnify"><defs><filter height="300%" id="f1mtuj8xn1y3u8" width="300%" x="-1" y="-1"><feGaussianBlur result="blurOut" stdDeviation="2.0"/><feColorMatrix in="blurOut" result="blurOut2" type="matrix" values="0 0 0 0 0 0 0 0 0 0 0 0 0 0 0 0 0 0 .4 0"/><feOffset dx="4.0" dy="4.0" in="blurOut2" result="blurOut3"/><feBlend in="SourceGraphic" in2="blurOut3" mode="normal"/></filter></defs><g><!--MD5=[5b64a4ef2faf135617e24b9ec51a3973]
entity body--><rect fill="#FEFECE" filter="url(#f1mtuj8xn1y3u8)" height="46.2969" style="stroke:#A80036;stroke-width:1.5;" width="76" x="132" y="7"/><rect fill="#FEFECE" height="10" style="stroke:#A80036;stroke-width:1.5;" width="15" x="188" y="12"/><rect fill="#FEFECE" height="2" style="stroke:#A80036;stroke-width:1.5;" width="4" x="186" y="14"/><rect fill="#FEFECE" height="2" style="stroke:#A80036;stroke-width:1.5;" width="4" x="186" y="18"/><text fill="#000000" font-family="sans-serif" font-size="14" lengthAdjust="spacing" textLength="36" x="147" y="39.9951">body</text><!--MD5=[c2d43cb9f80312c3c5689cc66c9c38e1]
entity header--><rect fill="#FEFECE" filter="url(#f1mtuj8xn1y3u8)" height="46.2969" style="stroke:#A80036;stroke-width:1.5;" width="90" x="7" y="113"/><rect fill="#FEFECE" height="10" style="stroke:#A80036;stroke-width:1.5;" width="15" x="77" y="118"/><rect fill="#FEFECE" height="2" style="stroke:#A80036;stroke-width:1.5;" width="4" x="75" y="120"/><rect fill="#FEFECE" height="2" style="stroke:#A80036;stroke-width:1.5;" width="4" x="75" y="124"/><text fill="#000000" font-family="sans-serif" font-size="14" lengthAdjust="spacing" textLength="50" x="22" y="145.9951">header</text><!--MD5=[53ccf4b3ee6cf4337a0ab93ac09644f3]
entity main--><rect fill="#FEFECE" filter="url(#f1mtuj8xn1y3u8)" height="46.2969" style="stroke:#A80036;stroke-width:1.5;" width="75" x="132.5" y="113"/><rect fill="#FEFECE" height="10" style="stroke:#A80036;stroke-width:1.5;" width="15" x="187.5" y="118"/><rect fill="#FEFECE" height="2" style="stroke:#A80036;stroke-width:1.5;" width="4" x="185.5" y="120"/><rect fill="#FEFECE" height="2" style="stroke:#A80036;stroke-width:1.5;" width="4" x="185.5" y="124"/><text fill="#000000" font-family="sans-serif" font-size="14" lengthAdjust="spacing" textLength="35" x="147.5" y="145.9951">main</text><!--MD5=[f3ff10092eb39bc9b1ae0abb4971e49f]
entity footer--><rect fill="#FEFECE" filter="url(#f1mtuj8xn1y3u8)" height="46.2969" style="stroke:#A80036;stroke-width:1.5;" width="86" x="243" y="113"/><rect fill="#FEFECE" height="10" style="stroke:#A80036;stroke-width:1.5;" width="15" x="309" y="118"/><rect fill="#FEFECE" height="2" style="stroke:#A80036;stroke-width:1.5;" width="4" x="307" y="120"/><rect fill="#FEFECE" height="2" style="stroke:#A80036;stroke-width:1.5;" width="4" x="307" y="124"/><text fill="#000000" font-family="sans-serif" font-size="14" lengthAdjust="spacing" textLength="46" x="258" y="145.9951">footer</text><!--MD5=[32e5c3c46e628b3f131ab6515807e6fb]
entity nav.sidebar--><rect fill="#FEFECE" filter="url(#f1mtuj8xn1y3u8)" height="46.2969" style="stroke:#A80036;stroke-width:1.5;" width="123" x="19.5" y="219"/><rect fill="#FEFECE" height="10" style="stroke:#A80036;stroke-width:1.5;" width="15" x="122.5" y="224"/><rect fill="#FEFECE" height="2" style="stroke:#A80036;stroke-width:1.5;" width="4" x="120.5" y="226"/><rect fill="#FEFECE" height="2" style="stroke:#A80036;stroke-width:1.5;" width="4" x="120.5" y="230"/><text fill="#000000" font-family="sans-serif" font-size="14" lengthAdjust="spacing" textLength="83" x="34.5" y="251.9951">nav.sidebar</text><!--MD5=[049d7f21a8fc8ef4139171f727804c40]
entity div.main-content--><rect fill="#FEFECE" filter="url(#f1mtuj8xn1y3u8)" height="46.2969" style="stroke:#A80036;stroke-width:1.5;" width="165" x="177.5" y="219"/><rect fill="#FEFECE" height="10" style="stroke:#A80036;stroke-width:1.5;" width="15" x="322.5" y="224"/><rect fill="#FEFECE" height="2" style="stroke:#A80036;stroke-width:1.5;" width="4" x="320.5" y="226"/><rect fill="#FEFECE" height="2" style="stroke:#A80036;stroke-width:1.5;" width="4" x="320.5" y="230"/><text fill="#000000" font-family="sans-serif" font-size="14" lengthAdjust="spacing" textLength="125" x="192.5" y="251.9951">div.main-content</text><!--MD5=[5456e97ae419bdd5ef1d89d979b60c6f]
link body to header--><path d="M144.975,53.056 C126.202,69.602 100.4665,92.284 80.8307,109.59 " fill="none" id="body-to-header" style="stroke:#A80036;stroke-width:1.0;"/><polygon fill="#A80036" points="76.9887,112.976,86.3855,110.0263,80.7398,109.6701,81.096,104.0245,76.9887,112.976" style="stroke:#A80036;stroke-width:1.0;"/><!--MD5=[a30538ce64ef6b4b236470a736ad96ab]
link body to main--><path d="M170,53.056 C170,69.05 170,90.778 170,107.842 " fill="none" id="body-to-main" style="stroke:#A80036;stroke-width:1.0;"/><polygon fill="#A80036" points="170,112.976,174,103.976,170,107.976,166,103.976,170,112.976" style="stroke:#A80036;stroke-width:1.0;"/><!--MD5=[6f46486599f061ab18948db27ee43c90]
link body to footer--><path d="M194.601,53.056 C213.056,69.602 238.355,92.284 257.658,109.59 " fill="none" id="body-to-footer" style="stroke:#A80036;stroke-width:1.0;"/><polygon fill="#A80036" points="261.435,112.976,257.4033,103.9902,257.7119,109.6386,252.0634,109.9472,261.435,112.976" style="stroke:#A80036;stroke-width:1.0;"/><!--MD5=[db705da1392a35d7c8e9b0c9682190c9]
link main to nav.sidebar--><path d="M151.125,159.056 C137.084,175.4639 117.878,197.9062 103.1164,215.1562 " fill="none" id="main-to-nav.sidebar" style="stroke:#A80036;stroke-width:1.0;"/><polygon fill="#A80036" points="99.8474,218.9761,108.7382,214.739,103.0984,215.1773,102.6601,209.5374,99.8474,218.9761" style="stroke:#A80036;stroke-width:1.0;"/><!--MD5=[19f9d678a0568ab2c0ce58c1cc8cfc30]
link main to div.main-content--><path d="M189.087,159.056 C203.286,175.4639 222.707,197.9062 237.635,215.1562 " fill="none" id="main-to-div.main-content" style="stroke:#A80036;stroke-width:1.0;"/><polygon fill="#A80036" points="240.941,218.9761,238.0751,209.5534,237.6686,215.1957,232.0264,214.7892,240.941,218.9761" style="stroke:#A80036;stroke-width:1.0;"/><!--MD5=[fe3ec3d340bea3ef2149cecd83b79a05]
@startuml
[body] - -> [header]
[body] - -> [main]
[body] - -> [footer]

[main] - -> [nav.sidebar]
[main] - -> [div.main-content]
@enduml

PlantUML version 1.2022.2beta1(Unknown compile time)
(GPL source distribution)
Java Runtime: Java(TM) SE Runtime Environment
JVM: Java HotSpot(TM) 64-Bit Server VM
Default Encoding: UTF-8
Language: en
Country: US
--></g></svg>