<?xml version="1.0" encoding="UTF-8" standalone="no"?><svg xmlns="http://www.w3.org/2000/svg" xmlns:xlink="http://www.w3.org/1999/xlink" contentScriptType="application/ecmascript" contentStyleType="text/css" height="414px" preserveAspectRatio="none" style="width:439px;height:414px;background:#FFFFFF;" version="1.1" viewBox="0 0 439 414" width="439px" zoomAndPan="magnify"><defs><filter height="300%" id="f1kie4qc9yr5h5" width="300%" x="-1" y="-1"><feGaussianBlur result="blurOut" stdDeviation="2.0"/><feColorMatrix in="blurOut" result="blurOut2" type="matrix" values="0 0 0 0 0 0 0 0 0 0 0 0 0 0 0 0 0 0 .4 0"/><feOffset dx="4.0" dy="4.0" in="blurOut2" result="blurOut3"/><feBlend in="SourceGraphic" in2="blurOut3" mode="normal"/></filter></defs><g><!--MD5=[b4d3d50c0abf08df45181fececb9f04d]
class Store--><rect codeLine="2" fill="#FEFECE" filter="url(#f1kie4qc9yr5h5)" height="91.2188" id="Store" style="stroke:#A80036;stroke-width:1.5;" width="160" x="7" y="171"/><ellipse cx="66.25" cy="187" fill="#ADD1B2" rx="11" ry="11" style="stroke:#A80036;stroke-width:1.0;"/><path d="M68.5938,182.6719 C67.6563,182.2344 67.0625,182.0938 66.1875,182.0938 C63.5625,182.0938 61.5625,184.1719 61.5625,186.8906 L61.5625,188.0156 C61.5625,190.5938 63.6719,192.4844 66.5625,192.4844 C67.7813,192.4844 68.9375,192.1875 69.6875,191.6406 C70.2656,191.2344 70.5938,190.7813 70.5938,190.3906 C70.5938,189.9375 70.2031,189.5469 69.7344,189.5469 C69.5156,189.5469 69.3125,189.625 69.125,189.8125 C68.6719,190.2969 68.6719,190.2969 68.4844,190.3906 C68.0625,190.6563 67.375,190.7813 66.6094,190.7813 C64.5625,190.7813 63.2656,189.6875 63.2656,187.9844 L63.2656,186.8906 C63.2656,185.1094 64.5156,183.7969 66.25,183.7969 C66.8281,183.7969 67.4375,183.9531 67.9063,184.2031 C68.3906,184.4844 68.5625,184.7031 68.6563,185.1094 C68.7188,185.5156 68.75,185.6406 68.8906,185.7656 C69.0313,185.9063 69.2656,186.0156 69.4844,186.0156 C69.75,186.0156 70.0156,185.875 70.1875,185.6563 C70.2969,185.5 70.3281,185.3125 70.3281,184.8906 L70.3281,183.4688 C70.3281,183.0313 70.3125,182.9063 70.2188,182.75 C70.0625,182.4844 69.7813,182.3438 69.4844,182.3438 C69.1875,182.3438 68.9844,182.4375 68.7656,182.75 L68.5938,182.6719 Z " fill="#000000"/><text fill="#000000" font-family="sans-serif" font-size="12" lengthAdjust="spacing" textLength="33" x="86.75" y="191.1543">Store</text><line style="stroke:#A80036;stroke-width:1.5;" x1="8" x2="166" y1="203" y2="203"/><ellipse cx="18" cy="214" rx="3" ry="3" style="stroke:#038048;stroke-width:1.0;fill:none;"/><text fill="#000000" font-family="sans-serif" font-size="11" lengthAdjust="spacing" textLength="35" x="27" y="217.2104">Id : int</text><ellipse cx="18" cy="226.8047" rx="3" ry="3" style="stroke:#038048;stroke-width:1.0;fill:none;"/><text fill="#000000" font-family="sans-serif" font-size="11" lengthAdjust="spacing" textLength="76" x="27" y="230.0151">Name : string</text><ellipse cx="18" cy="239.6094" rx="3" ry="3" style="stroke:#038048;stroke-width:1.0;fill:none;"/><text fill="#000000" font-family="sans-serif" font-size="11" lengthAdjust="spacing" textLength="134" x="27" y="242.8198">CloseDate : DateTime?</text><ellipse cx="18" cy="252.4141" rx="3" ry="3" style="stroke:#038048;stroke-width:1.0;fill:none;"/><text fill="#000000" font-family="sans-serif" font-size="11" lengthAdjust="spacing" textLength="63" x="27" y="255.6245">Url : string?</text><!--MD5=[af8ed831b3fe9dbd380fec6c597723ab]
class Offer--><rect codeLine="9" fill="#FEFECE" filter="url(#f1kie4qc9yr5h5)" height="104.0234" id="Offer" style="stroke:#A80036;stroke-width:1.5;" width="158" x="121" y="7"/><ellipse cx="180.25" cy="23" fill="#ADD1B2" rx="11" ry="11" style="stroke:#A80036;stroke-width:1.0;"/><path d="M182.5938,18.6719 C181.6563,18.2344 181.0625,18.0938 180.1875,18.0938 C177.5625,18.0938 175.5625,20.1719 175.5625,22.8906 L175.5625,24.0156 C175.5625,26.5938 177.6719,28.4844 180.5625,28.4844 C181.7813,28.4844 182.9375,28.1875 183.6875,27.6406 C184.2656,27.2344 184.5938,26.7813 184.5938,26.3906 C184.5938,25.9375 184.2031,25.5469 183.7344,25.5469 C183.5156,25.5469 183.3125,25.625 183.125,25.8125 C182.6719,26.2969 182.6719,26.2969 182.4844,26.3906 C182.0625,26.6563 181.375,26.7813 180.6094,26.7813 C178.5625,26.7813 177.2656,25.6875 177.2656,23.9844 L177.2656,22.8906 C177.2656,21.1094 178.5156,19.7969 180.25,19.7969 C180.8281,19.7969 181.4375,19.9531 181.9063,20.2031 C182.3906,20.4844 182.5625,20.7031 182.6563,21.1094 C182.7188,21.5156 182.75,21.6406 182.8906,21.7656 C183.0313,21.9063 183.2656,22.0156 183.4844,22.0156 C183.75,22.0156 184.0156,21.875 184.1875,21.6563 C184.2969,21.5 184.3281,21.3125 184.3281,20.8906 L184.3281,19.4688 C184.3281,19.0313 184.3125,18.9063 184.2188,18.75 C184.0625,18.4844 183.7813,18.3438 183.4844,18.3438 C183.1875,18.3438 182.9844,18.4375 182.7656,18.75 L182.5938,18.6719 Z " fill="#000000"/><text fill="#000000" font-family="sans-serif" font-size="12" lengthAdjust="spacing" textLength="31" x="200.75" y="27.1543">Offer</text><line style="stroke:#A80036;stroke-width:1.5;" x1="122" x2="278" y1="39" y2="39"/><ellipse cx="132" cy="50" rx="3" ry="3" style="stroke:#038048;stroke-width:1.0;fill:none;"/><text fill="#000000" font-family="sans-serif" font-size="11" lengthAdjust="spacing" textLength="35" x="141" y="53.2104">Id : int</text><ellipse cx="132" cy="62.8047" rx="3" ry="3" style="stroke:#038048;stroke-width:1.0;fill:none;"/><text fill="#000000" font-family="sans-serif" font-size="11" lengthAdjust="spacing" textLength="93" x="141" y="66.0151">Product : Product</text><ellipse cx="132" cy="75.6094" rx="3" ry="3" style="stroke:#038048;stroke-width:1.0;fill:none;"/><text fill="#000000" font-family="sans-serif" font-size="11" lengthAdjust="spacing" textLength="73" x="141" y="78.8198">Store : Store</text><ellipse cx="132" cy="88.4141" rx="3" ry="3" style="stroke:#038048;stroke-width:1.0;fill:none;"/><text fill="#000000" font-family="sans-serif" font-size="11" lengthAdjust="spacing" textLength="83" x="141" y="91.6245">Price : decimal</text><ellipse cx="132" cy="101.2188" rx="3" ry="3" style="stroke:#038048;stroke-width:1.0;fill:none;"/><text fill="#000000" font-family="sans-serif" font-size="11" lengthAdjust="spacing" textLength="132" x="141" y="104.4292">LastUpdate : DateTime</text><!--MD5=[72136138052d025cffdce3c22fbd185f]
class Product--><rect codeLine="26" fill="#FEFECE" filter="url(#f1kie4qc9yr5h5)" height="78.4141" id="Product" style="stroke:#A80036;stroke-width:1.5;" width="223" x="202.5" y="177.5"/><ellipse cx="287.25" cy="193.5" fill="#ADD1B2" rx="11" ry="11" style="stroke:#A80036;stroke-width:1.0;"/><path d="M289.5938,189.1719 C288.6563,188.7344 288.0625,188.5938 287.1875,188.5938 C284.5625,188.5938 282.5625,190.6719 282.5625,193.3906 L282.5625,194.5156 C282.5625,197.0938 284.6719,198.9844 287.5625,198.9844 C288.7813,198.9844 289.9375,198.6875 290.6875,198.1406 C291.2656,197.7344 291.5938,197.2813 291.5938,196.8906 C291.5938,196.4375 291.2031,196.0469 290.7344,196.0469 C290.5156,196.0469 290.3125,196.125 290.125,196.3125 C289.6719,196.7969 289.6719,196.7969 289.4844,196.8906 C289.0625,197.1563 288.375,197.2813 287.6094,197.2813 C285.5625,197.2813 284.2656,196.1875 284.2656,194.4844 L284.2656,193.3906 C284.2656,191.6094 285.5156,190.2969 287.25,190.2969 C287.8281,190.2969 288.4375,190.4531 288.9063,190.7031 C289.3906,190.9844 289.5625,191.2031 289.6563,191.6094 C289.7188,192.0156 289.75,192.1406 289.8906,192.2656 C290.0313,192.4063 290.2656,192.5156 290.4844,192.5156 C290.75,192.5156 291.0156,192.375 291.1875,192.1563 C291.2969,192 291.3281,191.8125 291.3281,191.3906 L291.3281,189.9688 C291.3281,189.5313 291.3125,189.4063 291.2188,189.25 C291.0625,188.9844 290.7813,188.8438 290.4844,188.8438 C290.1875,188.8438 289.9844,188.9375 289.7656,189.25 L289.5938,189.1719 Z " fill="#000000"/><text fill="#000000" font-family="sans-serif" font-size="12" lengthAdjust="spacing" textLength="45" x="307.75" y="197.6543">Product</text><line style="stroke:#A80036;stroke-width:1.5;" x1="203.5" x2="424.5" y1="209.5" y2="209.5"/><ellipse cx="213.5" cy="220.5" rx="3" ry="3" style="stroke:#038048;stroke-width:1.0;fill:none;"/><text fill="#000000" font-family="sans-serif" font-size="11" lengthAdjust="spacing" textLength="46" x="222.5" y="223.7104">Ean : int</text><ellipse cx="213.5" cy="233.3047" rx="3" ry="3" style="stroke:#038048;stroke-width:1.0;fill:none;"/><text fill="#000000" font-family="sans-serif" font-size="11" lengthAdjust="spacing" textLength="76" x="222.5" y="236.5151">Name : string</text><ellipse cx="213.5" cy="246.1094" rx="3" ry="3" style="stroke:#038048;stroke-width:1.0;fill:none;"/><text fill="#000000" font-family="sans-serif" font-size="11" lengthAdjust="spacing" textLength="197" x="222.5" y="249.3198">ProductCategory : ProductCategory</text><!--MD5=[a1db4bf20df23ac2cd9366d22a9e2860]
class ProductCategory--><rect codeLine="20" fill="#FEFECE" filter="url(#f1kie4qc9yr5h5)" height="78.4141" id="ProductCategory" style="stroke:#A80036;stroke-width:1.5;" width="132" x="248" y="322"/><ellipse cx="263" cy="338" fill="#ADD1B2" rx="11" ry="11" style="stroke:#A80036;stroke-width:1.0;"/><path d="M265.3438,333.6719 C264.4063,333.2344 263.8125,333.0938 262.9375,333.0938 C260.3125,333.0938 258.3125,335.1719 258.3125,337.8906 L258.3125,339.0156 C258.3125,341.5938 260.4219,343.4844 263.3125,343.4844 C264.5313,343.4844 265.6875,343.1875 266.4375,342.6406 C267.0156,342.2344 267.3438,341.7813 267.3438,341.3906 C267.3438,340.9375 266.9531,340.5469 266.4844,340.5469 C266.2656,340.5469 266.0625,340.625 265.875,340.8125 C265.4219,341.2969 265.4219,341.2969 265.2344,341.3906 C264.8125,341.6563 264.125,341.7813 263.3594,341.7813 C261.3125,341.7813 260.0156,340.6875 260.0156,338.9844 L260.0156,337.8906 C260.0156,336.1094 261.2656,334.7969 263,334.7969 C263.5781,334.7969 264.1875,334.9531 264.6563,335.2031 C265.1406,335.4844 265.3125,335.7031 265.4063,336.1094 C265.4688,336.5156 265.5,336.6406 265.6406,336.7656 C265.7813,336.9063 266.0156,337.0156 266.2344,337.0156 C266.5,337.0156 266.7656,336.875 266.9375,336.6563 C267.0469,336.5 267.0781,336.3125 267.0781,335.8906 L267.0781,334.4688 C267.0781,334.0313 267.0625,333.9063 266.9688,333.75 C266.8125,333.4844 266.5313,333.3438 266.2344,333.3438 C265.9375,333.3438 265.7344,333.4375 265.5156,333.75 L265.3438,333.6719 Z " fill="#000000"/><text fill="#000000" font-family="sans-serif" font-size="12" lengthAdjust="spacing" textLength="100" x="277" y="342.1543">ProductCategory</text><line style="stroke:#A80036;stroke-width:1.5;" x1="249" x2="379" y1="354" y2="354"/><ellipse cx="259" cy="365" rx="3" ry="3" style="stroke:#038048;stroke-width:1.0;fill:none;"/><text fill="#000000" font-family="sans-serif" font-size="11" lengthAdjust="spacing" textLength="35" x="268" y="368.2104">Id : int</text><ellipse cx="259" cy="377.8047" rx="3" ry="3" style="stroke:#038048;stroke-width:1.0;fill:none;"/><text fill="#000000" font-family="sans-serif" font-size="11" lengthAdjust="spacing" textLength="76" x="268" y="381.0151">Name : string</text><ellipse cx="259" cy="390.6094" rx="3" ry="3" style="stroke:#038048;stroke-width:1.0;fill:none;"/><text fill="#000000" font-family="sans-serif" font-size="11" lengthAdjust="spacing" textLength="96" x="268" y="393.8198">NameEn : string?</text><!--MD5=[70935dd098ed5da231aa315676372594]
link Offer to Store--><path codeLine="17" d="M155.6315,121.0545 C155.6315,121.0545 136.125,147.899 127.096,160.324 " fill="none" id="Offer-Store" style="stroke:#A80036;stroke-width:1.0;"/><polygon fill="#A80036" points="119.345,170.99,127.8717,166.0609,122.2844,166.9452,121.4,161.3579,119.345,170.99" style="stroke:#A80036;stroke-width:1.0;"/><line style="stroke:#A80036;stroke-width:1.0;" x1="122.2844" x2="126.987" y1="166.9452" y2="160.474"/><polygon fill="#FFFFFF" points="162.686,111.347,155.923,113.8492,155.6315,121.0545,162.3946,118.5522,162.686,111.347" style="stroke:#A80036;stroke-width:1.0;"/><!--MD5=[48899a5fad677940e75da7b5e010d5cb]
link Offer to Product--><path codeLine="18" d="M244.7387,121.0251 C244.7387,121.0251 267.693,152.336 278.082,166.507 " fill="none" id="Offer-Product" style="stroke:#A80036;stroke-width:1.0;"/><polygon fill="#A80036" points="285.787,177.017,283.692,167.3935,282.8309,172.9845,277.2399,172.1233,285.787,177.017" style="stroke:#A80036;stroke-width:1.0;"/><line style="stroke:#A80036;stroke-width:1.0;" x1="282.8309" x2="278.1005" y1="172.9845" y2="166.532"/><polygon fill="#FFFFFF" points="237.644,111.347,237.9653,118.5509,244.7387,121.0251,244.4174,113.8211,237.644,111.347" style="stroke:#A80036;stroke-width:1.0;"/><!--MD5=[5c0c66984b48f13f6f1fd84ba8e61151]
link Product to ProductCategory--><path codeLine="31" d="M314,267.687 C314,267.687 314,295.722 314,308.6543 " fill="none" id="Product-ProductCategory" style="stroke:#A80036;stroke-width:1.0;"/><polygon fill="#A80036" points="314,321.7072,318,312.7072,314,316.7072,310,312.7072,314,321.7072" style="stroke:#A80036;stroke-width:1.0;"/><line style="stroke:#A80036;stroke-width:1.0;" x1="314" x2="314" y1="316.7072" y2="308.7072"/><polygon fill="#FFFFFF" points="314,255.687,310,261.687,314,267.687,318,261.687,314,255.687" style="stroke:#A80036;stroke-width:1.0;"/><!--MD5=[35b828776f75a49d29e22b70a4a72007]
@startuml
hide empty methods
class Store {
    +Id : int
    +Name : string
    +CloseDate : DateTime?
    +Url : string?
}

class Offer {
    +Id : int
    +Product : Product
    +Store : Store
    +Price : decimal
    +LastUpdate : DateTime
}

Offer o- -> Store
Offer o- -> Product

class ProductCategory {
    +Id : int
    +Name : string
    +NameEn : string?
}

class Product {
    +Ean : int
    +Name : string
    +ProductCategory : ProductCategory
}
Product o- -> ProductCategory
@enduml

PlantUML version 1.2022.1beta9(Unknown compile time)
(GPL source distribution)
Java Runtime: Java(TM) SE Runtime Environment
JVM: Java HotSpot(TM) 64-Bit Server VM
Default Encoding: UTF-8
Language: en
Country: US
--></g></svg>