<?xml version="1.0" encoding="iso-8859-1"?>
<!-- Generator: Adobe Illustrator 18.0.0, SVG Export Plug-In . SVG Version: 6.00 Build 0)  -->
<!DOCTYPE svg PUBLIC "-//W3C//DTD SVG 1.1//EN" "http://www.w3.org/Graphics/SVG/1.1/DTD/svg11.dtd">
<svg version="1.1" id="Capa_1" xmlns="http://www.w3.org/2000/svg" xmlns:xlink="http://www.w3.org/1999/xlink" x="0px" y="0px"
	 viewBox="0 0 60 60" style="enable-background:new 0 0 60 60;" xml:space="preserve">
<g>
	<path d="M59.909,11.709c-0.002-0.109-0.014-0.218-0.044-0.324l-0.146,0.042c-0.002-0.003-0.003-0.006-0.006-0.008l0.149-0.044
		C58.225,5.361,53.122,0.946,47,0.14V0L31,0v0h-0.181h-1.639H29v0.001l-14.002,0C8.069,0.013,1.959,4.689,0.142,11.362
		C0.11,11.473,0.099,11.586,0.097,11.7C0.036,11.841,0,11.996,0,12.16V14v46h39h17h4V14v-1.84C60,12,59.967,11.848,59.909,11.709z
		 M45.93,2.04c5.371,0.381,9.974,3.94,11.724,8.96H45h-0.204c-0.938-3.868-3.391-7.069-6.661-9h6.841L45.93,2.04z M43,14
		c0,3.309-2.691,6-6,6s-6-2.691-6-6v-1h12V14z M17,13h12v1c0,3.309-2.691,6-6,6s-6-2.691-6-6V13z M31,2.001
		C36.511,2.08,41.259,5.776,42.742,11H31V2.001z M29,11H17.258C18.741,5.776,23.489,2.08,29,2.001V11z M15.023,2h6.841
		c-3.27,1.931-5.723,5.132-6.661,9H15H2.348C4.212,5.666,9.288,2.011,15.023,2z M2,13h12.802H15v1c0,3.309-2.691,6-6,6H8
		c-3.309,0-6-2.691-6-6V13z M54,44H41V33.5c0-3.584,2.916-6.5,6.5-6.5s6.5,2.916,6.5,6.5V44z M41,58V46h13v12H41z M58,19.286V58h-2
		V33.5c0-4.687-3.813-8.5-8.5-8.5S39,28.813,39,33.5V54c-0.553,0-1,0.447-1,1s0.447,1,1,1v1h-1c-0.553,0-1,0.447-1,1h-1
		c0-0.553-0.447-1-1-1h-1c-0.553,0-1,0.447-1,1h-1c0-0.553-0.447-1-1-1h-1c-0.553,0-1,0.447-1,1h-1c0-0.553-0.447-1-1-1h-1
		c-0.553,0-1,0.447-1,1h-1c0-0.553-0.447-1-1-1h-1c-0.553,0-1,0.447-1,1h-1c0-0.553-0.447-1-1-1h-1c-0.553,0-1,0.447-1,1h-1
		c0-0.553-0.447-1-1-1h-1c-0.553,0-1,0.447-1,1h-1c0-0.553-0.447-1-1-1h-1c-0.553,0-1,0.447-1,1H8c0-0.553-0.447-1-1-1H6
		c-0.553,0-1,0.447-1,1H4c0-0.553-0.447-1-1-1H2v-2V19.286c0.05,0.057,0.108,0.108,0.16,0.163c0.102,0.109,0.206,0.217,0.314,0.321
		c0.086,0.083,0.175,0.162,0.265,0.241c0.112,0.098,0.226,0.193,0.343,0.285c0.094,0.074,0.19,0.145,0.287,0.215
		c0.121,0.087,0.246,0.169,0.372,0.249c0.101,0.064,0.202,0.127,0.306,0.186c0.132,0.075,0.267,0.145,0.403,0.213
		c0.105,0.053,0.21,0.106,0.318,0.154c0.143,0.063,0.289,0.119,0.435,0.174c0.108,0.041,0.215,0.083,0.325,0.119
		c0.157,0.051,0.317,0.092,0.477,0.133c0.106,0.027,0.21,0.059,0.318,0.082c0.181,0.039,0.365,0.065,0.55,0.091
		c0.092,0.013,0.182,0.032,0.275,0.042C7.429,21.983,7.712,22,8,22h1c0.338,0,0.669-0.028,0.996-0.069
		c0.094-0.012,0.187-0.028,0.28-0.043c0.247-0.04,0.489-0.091,0.728-0.153c0.083-0.021,0.166-0.04,0.248-0.064
		c0.307-0.09,0.607-0.195,0.898-0.32c0.045-0.019,0.086-0.043,0.13-0.063c0.247-0.112,0.487-0.236,0.721-0.372
		c0.081-0.047,0.159-0.095,0.238-0.145c0.212-0.133,0.416-0.275,0.614-0.427c0.055-0.042,0.113-0.081,0.167-0.125
		c0.243-0.196,0.474-0.406,0.692-0.629c0.049-0.05,0.094-0.104,0.142-0.156c0.169-0.182,0.329-0.371,0.481-0.567
		c0.057-0.074,0.113-0.148,0.167-0.224c0.157-0.219,0.303-0.445,0.437-0.679c0.019-0.033,0.043-0.063,0.062-0.096
		c0.019,0.033,0.043,0.063,0.062,0.096c0.134,0.234,0.281,0.46,0.437,0.679c0.054,0.076,0.11,0.15,0.167,0.224
		c0.152,0.197,0.312,0.386,0.481,0.567c0.048,0.052,0.092,0.106,0.142,0.156c0.218,0.223,0.449,0.433,0.692,0.629
		c0.054,0.044,0.112,0.083,0.167,0.125c0.198,0.152,0.402,0.294,0.614,0.427c0.079,0.049,0.157,0.098,0.238,0.145
		c0.233,0.135,0.473,0.26,0.721,0.372c0.044,0.02,0.086,0.044,0.13,0.063c0.29,0.125,0.591,0.23,0.898,0.32
		c0.082,0.024,0.165,0.042,0.248,0.064c0.239,0.062,0.481,0.113,0.728,0.153c0.093,0.015,0.186,0.031,0.28,0.043
		C22.331,21.972,22.662,22,23,22s0.669-0.028,0.996-0.069c0.094-0.012,0.187-0.028,0.28-0.043c0.247-0.04,0.489-0.091,0.728-0.153
		c0.083-0.021,0.166-0.04,0.248-0.064c0.307-0.09,0.607-0.195,0.898-0.32c0.045-0.019,0.086-0.043,0.13-0.063
		c0.247-0.112,0.487-0.236,0.721-0.372c0.081-0.047,0.159-0.095,0.238-0.145c0.212-0.133,0.416-0.275,0.614-0.427
		c0.055-0.042,0.113-0.081,0.167-0.125c0.243-0.196,0.474-0.406,0.692-0.629c0.049-0.05,0.094-0.104,0.142-0.156
		c0.169-0.182,0.329-0.371,0.481-0.567c0.057-0.074,0.113-0.148,0.167-0.224c0.157-0.219,0.303-0.445,0.437-0.679
		c0.019-0.033,0.043-0.063,0.062-0.096c0.019,0.033,0.043,0.063,0.062,0.096c0.134,0.234,0.281,0.46,0.437,0.679
		c0.054,0.076,0.11,0.15,0.167,0.224c0.152,0.197,0.312,0.386,0.481,0.567c0.048,0.052,0.092,0.106,0.142,0.156
		c0.218,0.223,0.449,0.433,0.692,0.629c0.054,0.044,0.112,0.083,0.167,0.125c0.198,0.152,0.402,0.294,0.614,0.427
		c0.079,0.049,0.157,0.098,0.238,0.145c0.233,0.135,0.473,0.26,0.721,0.372c0.044,0.02,0.086,0.044,0.13,0.063
		c0.29,0.125,0.591,0.23,0.898,0.32c0.082,0.024,0.165,0.042,0.248,0.064c0.239,0.062,0.481,0.113,0.728,0.153
		c0.093,0.015,0.186,0.031,0.28,0.043C36.331,21.972,36.662,22,37,22s0.669-0.028,0.996-0.069c0.094-0.012,0.187-0.028,0.28-0.043
		c0.247-0.04,0.489-0.091,0.728-0.153c0.083-0.021,0.166-0.04,0.248-0.064c0.307-0.09,0.607-0.195,0.898-0.32
		c0.045-0.019,0.086-0.043,0.13-0.063c0.247-0.112,0.487-0.236,0.721-0.372c0.081-0.047,0.159-0.095,0.238-0.145
		c0.212-0.133,0.416-0.275,0.614-0.427c0.055-0.042,0.113-0.081,0.167-0.125c0.243-0.196,0.474-0.406,0.692-0.629
		c0.049-0.05,0.094-0.104,0.142-0.156c0.169-0.182,0.329-0.371,0.481-0.567c0.057-0.074,0.113-0.148,0.167-0.224
		c0.157-0.219,0.303-0.445,0.437-0.679c0.019-0.033,0.043-0.063,0.062-0.096c0.019,0.033,0.043,0.063,0.062,0.096
		c0.134,0.234,0.281,0.46,0.437,0.679c0.054,0.076,0.11,0.15,0.167,0.224c0.152,0.197,0.312,0.386,0.481,0.567
		c0.048,0.052,0.092,0.106,0.142,0.156c0.218,0.223,0.449,0.433,0.692,0.629c0.054,0.044,0.112,0.083,0.167,0.125
		c0.198,0.152,0.402,0.294,0.614,0.427c0.079,0.049,0.157,0.098,0.238,0.145c0.233,0.135,0.473,0.26,0.721,0.372
		c0.044,0.02,0.086,0.044,0.13,0.063c0.29,0.125,0.591,0.23,0.898,0.32c0.082,0.024,0.165,0.042,0.248,0.064
		c0.239,0.062,0.481,0.113,0.728,0.153c0.093,0.015,0.186,0.031,0.28,0.043C50.331,21.972,50.662,22,51,22h1
		c0.288,0,0.571-0.017,0.851-0.047c0.093-0.01,0.183-0.029,0.276-0.042c0.185-0.026,0.369-0.053,0.55-0.091
		c0.108-0.023,0.212-0.055,0.318-0.082c0.16-0.041,0.321-0.082,0.477-0.133c0.11-0.036,0.217-0.079,0.325-0.119
		c0.147-0.055,0.293-0.111,0.435-0.174c0.108-0.048,0.213-0.101,0.318-0.154c0.136-0.068,0.271-0.137,0.403-0.213
		c0.104-0.059,0.205-0.122,0.306-0.186c0.126-0.08,0.25-0.162,0.371-0.249c0.098-0.07,0.194-0.142,0.288-0.216
		c0.117-0.092,0.23-0.186,0.342-0.284c0.09-0.079,0.179-0.158,0.265-0.241c0.108-0.104,0.211-0.211,0.314-0.321
		C57.892,19.394,57.95,19.343,58,19.286z M52,20h-1c-3.309,0-6-2.691-6-6v-1h0.198H58v1C58,17.309,55.309,20,52,20z"/>
	<path d="M4,53h33V25H4V53z M6,27h29v24H6V27z"/>
	<path d="M15,38c0.256,0,0.512-0.098,0.707-0.293l4-4c0.391-0.391,0.391-1.023,0-1.414s-1.023-0.391-1.414,0l-4,4
		c-0.391,0.391-0.391,1.023,0,1.414C14.488,37.902,14.744,38,15,38z"/>
	<path d="M15,43c0.256,0,0.512-0.098,0.707-0.293l2-2c0.391-0.391,0.391-1.023,0-1.414s-1.023-0.391-1.414,0l-2,2
		c-0.391,0.391-0.391,1.023,0,1.414C14.488,42.902,14.744,43,15,43z"/>
	<path d="M18.29,37.29C18.109,37.479,18,37.74,18,38s0.109,0.52,0.29,0.71C18.479,38.89,18.74,39,19,39s0.52-0.11,0.71-0.29
		C19.89,38.52,20,38.26,20,38s-0.11-0.521-0.29-0.71C19.34,36.92,18.66,36.92,18.29,37.29z"/>
	<path d="M20.293,36.707C20.488,36.902,20.744,37,21,37s0.512-0.098,0.707-0.293l3-3c0.391-0.391,0.391-1.023,0-1.414
		s-1.023-0.391-1.414,0l-3,3C19.902,35.684,19.902,36.316,20.293,36.707z"/>
	<path d="M23.293,37.293l-9,9c-0.391,0.391-0.391,1.023,0,1.414C14.488,47.902,14.744,48,15,48s0.512-0.098,0.707-0.293l9-9
		c0.391-0.391,0.391-1.023,0-1.414S23.684,36.902,23.293,37.293z"/>
	<path d="M25.29,35.29C25.109,35.479,25,35.729,25,36c0,0.27,0.109,0.52,0.29,0.71C25.479,36.89,25.729,37,26,37
		c0.27,0,0.52-0.11,0.7-0.29C26.89,36.52,27,36.26,27,36c0-0.271-0.11-0.521-0.29-0.71C26.34,34.92,25.66,34.92,25.29,35.29z"/>
	<path d="M8,54H7c-0.553,0-1,0.447-1,1s0.447,1,1,1h1c0.553,0,1-0.447,1-1S8.553,54,8,54z"/>
	<path d="M3,56h1c0.553,0,1-0.447,1-1s-0.447-1-1-1H3c-0.553,0-1,0.447-1,1S2.447,56,3,56z"/>
	<path d="M16,54h-1c-0.553,0-1,0.447-1,1s0.447,1,1,1h1c0.553,0,1-0.447,1-1S16.553,54,16,54z"/>
	<path d="M12,54h-1c-0.553,0-1,0.447-1,1s0.447,1,1,1h1c0.553,0,1-0.447,1-1S12.553,54,12,54z"/>
	<path d="M24,54h-1c-0.553,0-1,0.447-1,1s0.447,1,1,1h1c0.553,0,1-0.447,1-1S24.553,54,24,54z"/>
	<path d="M20,54h-1c-0.553,0-1,0.447-1,1s0.447,1,1,1h1c0.553,0,1-0.447,1-1S20.553,54,20,54z"/>
	<path d="M32,54h-1c-0.553,0-1,0.447-1,1s0.447,1,1,1h1c0.553,0,1-0.447,1-1S32.553,54,32,54z"/>
	<path d="M28,54h-1c-0.553,0-1,0.447-1,1s0.447,1,1,1h1c0.553,0,1-0.447,1-1S28.553,54,28,54z"/>
	<path d="M36,54h-1c-0.553,0-1,0.447-1,1s0.447,1,1,1h1c0.553,0,1-0.447,1-1S36.553,54,36,54z"/>
</g>
<g>
</g>
<g>
</g>
<g>
</g>
<g>
</g>
<g>
</g>
<g>
</g>
<g>
</g>
<g>
</g>
<g>
</g>
<g>
</g>
<g>
</g>
<g>
</g>
<g>
</g>
<g>
</g>
<g>
</g>
</svg>
